<?xml version="1.0" encoding="utf-8"?>
<svg viewBox="0 0 500 500" xmlns="http://www.w3.org/2000/svg">
  <circle style="" cx="250" cy="250" r="250"/>
  <circle style="fill: rgb(255, 255, 255);" cx="250" cy="250" r="245"/>
  <circle style="" cx="250" cy="250" r="240"/>
  <g style="" transform="matrix(16.763243, 0, 0, 12.975022, -3621.519775, -1252.33606)">
    <path d="M 226.3 125.581 C 224.307 125.581 222.643 125.141 221.31 124.261 C 219.97 123.388 218.967 122.191 218.3 120.671 C 217.627 119.151 217.29 117.424 217.29 115.491 L 217.29 115.201 C 217.29 113.248 217.643 111.514 218.35 110.001 C 219.05 108.481 220.057 107.284 221.37 106.411 C 222.683 105.538 224.25 105.101 226.07 105.101 C 227.357 105.101 228.533 105.301 229.6 105.701 C 230.667 106.101 231.55 106.611 232.25 107.231 L 232.25 111.521 L 230.1 111.521 L 229.82 108.381 C 229.527 108.154 229.19 107.961 228.81 107.801 C 228.43 107.648 228.01 107.531 227.55 107.451 C 227.09 107.371 226.593 107.331 226.06 107.331 C 224.753 107.331 223.65 107.664 222.75 108.331 C 221.85 108.998 221.167 109.921 220.7 111.101 C 220.233 112.274 220 113.631 220 115.171 L 220 115.491 C 220 117.158 220.25 118.581 220.75 119.761 C 221.243 120.941 221.967 121.841 222.92 122.461 C 223.873 123.081 225.033 123.391 226.4 123.391 C 227.04 123.391 227.663 123.314 228.27 123.161 C 228.883 123.001 229.39 122.801 229.79 122.561 L 230.09 119.781 L 232.2 119.781 L 232.2 124.101 C 231.453 124.568 230.56 124.931 229.52 125.191 C 228.48 125.451 227.407 125.581 226.3 125.581 Z" transform="matrix(1, 0, 0, 1, 0, 0)" style="fill: rgb(252, 252, 252); white-space: pre;"/>
    <path d="M 242.874 125.291 L 227.714 125.291 L 227.714 123.571 L 229.944 123.181 L 229.944 107.501 L 227.714 107.121 L 227.714 105.381 L 242.454 105.381 L 242.454 110.171 L 240.294 110.171 L 239.984 107.461 L 232.634 107.461 L 232.634 113.941 L 239.974 113.941 L 239.974 116.061 L 232.634 116.061 L 232.634 123.271 L 240.424 123.271 L 240.724 120.521 L 242.874 120.521 L 242.874 125.291 Z" transform="matrix(1, 0, 0, 1, 0, 0)" style="fill: rgb(252, 252, 252); white-space: pre;"/>
  </g>
</svg>